<svg width="49" height="48" viewBox="0 0 49 48" fill="none" xmlns="http://www.w3.org/2000/svg">
<path d="M4.03436 38.5955V19.251C4.03436 18.3276 4.3722 17.5271 5.04786 16.8495C5.7232 16.1715 6.52086 15.8325 7.44086 15.8325H14.0344V11.1075C14.0344 10.1841 14.3722 9.38363 15.0479 8.70596C15.7232 8.02796 16.5209 7.68896 17.4409 7.68896H31.2259C32.1492 7.68896 32.9497 8.02796 33.6274 8.70596C34.3054 9.38363 34.6444 10.1841 34.6444 11.1075V15.8325H41.2259C42.1492 15.8325 42.9497 16.1715 43.6274 16.8495C44.3054 17.5271 44.6444 18.3276 44.6444 19.251V38.5955C44.6444 39.0765 44.4784 39.4806 44.1464 39.808C43.8147 40.1353 43.4089 40.299 42.9289 40.299H5.73786C5.25686 40.299 4.8527 40.1353 4.52536 39.808C4.19803 39.4806 4.03436 39.0765 4.03436 38.5955ZM15.6844 29.751V31.251C15.6844 31.676 15.537 32.0323 15.2424 32.32C14.9477 32.6073 14.5907 32.751 14.1714 32.751H13.7529C13.3255 32.751 12.9702 32.6073 12.6869 32.32C12.4035 32.0323 12.2619 31.676 12.2619 31.251V29.751H7.44086V36.8925H41.2259V29.751H36.4049V31.251C36.4049 31.676 36.2604 32.0323 35.9714 32.32C35.682 32.6073 35.3237 32.751 34.8964 32.751H34.4899C34.0622 32.751 33.7067 32.6073 33.4234 32.32C33.14 32.0323 32.9984 31.676 32.9984 31.251V29.751H15.6844ZM7.44086 19.251V26.3925H12.2619V24.8925C12.2619 24.4675 12.4064 24.1111 12.6954 23.8235C12.9847 23.5361 13.343 23.3925 13.7704 23.3925H14.1889C14.6085 23.3925 14.9627 23.5361 15.2514 23.8235C15.54 24.1111 15.6844 24.4675 15.6844 24.8925V26.3925H32.9984V24.8925C32.9984 24.4675 33.143 24.1111 33.4324 23.8235C33.7217 23.5361 34.08 23.3925 34.5074 23.3925H34.9139C35.3412 23.3925 35.6965 23.5361 35.9799 23.8235C36.2632 24.1111 36.4049 24.4675 36.4049 24.8925V26.3925H41.2259V19.251H7.44086ZM17.4409 15.8325H31.2259V11.1075H17.4409V15.8325Z" fill="white"/>
</svg>
