<svg width="48" height="48" viewBox="0 0 48 48" fill="none" xmlns="http://www.w3.org/2000/svg">
<path d="M3.701 38.5955V19.251C3.701 18.3276 4.03883 17.5271 4.7145 16.8495C5.38983 16.1715 6.1875 15.8325 7.1075 15.8325H13.701V11.1075C13.701 10.1841 14.0388 9.38363 14.7145 8.70596C15.3898 8.02796 16.1875 7.68896 17.1075 7.68896H30.8925C31.8158 7.68896 32.6163 8.02796 33.294 8.70596C33.972 9.38363 34.311 10.1841 34.311 11.1075V15.8325H40.8925C41.8158 15.8325 42.6163 16.1715 43.294 16.8495C43.972 17.5271 44.311 18.3276 44.311 19.251V38.5955C44.311 39.0765 44.145 39.4806 43.813 39.808C43.4813 40.1353 43.0755 40.299 42.5955 40.299H5.4045C4.9235 40.299 4.51933 40.1353 4.192 39.808C3.86466 39.4806 3.701 39.0765 3.701 38.5955ZM15.351 29.751V31.251C15.351 31.676 15.2037 32.0323 14.909 32.32C14.6143 32.6073 14.2573 32.751 13.838 32.751H13.4195C12.9922 32.751 12.6368 32.6073 12.3535 32.32C12.0702 32.0323 11.9285 31.676 11.9285 31.251V29.751H7.1075V36.8925H40.8925V29.751H36.0715V31.251C36.0715 31.676 35.927 32.0323 35.638 32.32C35.3487 32.6073 34.9903 32.751 34.563 32.751H34.1565C33.7288 32.751 33.3733 32.6073 33.09 32.32C32.8067 32.0323 32.665 31.676 32.665 31.251V29.751H15.351ZM7.1075 19.251V26.3925H11.9285V24.8925C11.9285 24.4675 12.073 24.1111 12.362 23.8235C12.6513 23.5361 13.0097 23.3925 13.437 23.3925H13.8555C14.2752 23.3925 14.6293 23.5361 14.918 23.8235C15.2067 24.1111 15.351 24.4675 15.351 24.8925V26.3925H32.665V24.8925C32.665 24.4675 32.8097 24.1111 33.099 23.8235C33.3883 23.5361 33.7467 23.3925 34.174 23.3925H34.5805C35.0078 23.3925 35.3632 23.5361 35.6465 23.8235C35.9298 24.1111 36.0715 24.4675 36.0715 24.8925V26.3925H40.8925V19.251H7.1075ZM17.1075 15.8325H30.8925V11.1075H17.1075V15.8325Z" fill="white"/>
</svg>
