<svg width="49" height="48" viewBox="0 0 49 48" fill="none" xmlns="http://www.w3.org/2000/svg">
<path d="M22.5167 26.2544L18.9267 22.5019C18.6087 22.1529 18.2235 21.9784 17.7712 21.9784C17.3188 21.9784 16.918 22.1323 16.5687 22.4399C16.2197 22.7933 16.0452 23.1956 16.0452 23.6469C16.0452 24.0983 16.2197 24.4986 16.5687 24.8479L21.3112 29.5399C21.6538 29.8879 22.0563 30.0619 22.5187 30.0619C22.981 30.0619 23.3822 29.8879 23.7222 29.5399L32.7647 20.5479C33.0803 20.2399 33.2382 19.8573 33.2382 19.3999C33.2382 18.9426 33.0637 18.5559 32.7147 18.2399C32.3987 17.9656 32.0223 17.8368 31.5857 17.8534C31.149 17.8701 30.7933 18.0196 30.5187 18.3019L22.5167 26.2544ZM17.0517 44.0269L13.9752 38.7629L7.82317 37.5129C7.40084 37.4383 7.05067 37.2139 6.77267 36.8399C6.49467 36.4656 6.389 36.0683 6.45567 35.6479L7.15567 29.6989L3.24167 25.1314C2.943 24.8218 2.79367 24.4438 2.79367 23.9974C2.79367 23.5514 2.943 23.1751 3.24167 22.8684L7.15567 18.3509L6.45567 12.4019C6.389 11.9816 6.49467 11.5843 6.77267 11.2099C7.05067 10.8359 7.40084 10.6076 7.82317 10.5249L13.9792 9.28444L17.0517 3.97294C17.2743 3.60328 17.5952 3.34094 18.0142 3.18594C18.4328 3.03094 18.8497 3.04861 19.2647 3.23894L24.6667 5.76494L30.0687 3.23894C30.4833 3.05628 30.9002 3.03211 31.3192 3.16644C31.7378 3.30044 32.0587 3.55261 32.2817 3.92294L35.4042 9.28444L41.5102 10.5249C41.9325 10.6076 42.2827 10.8359 42.5607 11.2099C42.8387 11.5843 42.9443 11.9816 42.8777 12.4019L42.1777 18.3509L46.0917 22.8684C46.3903 23.1781 46.5397 23.5561 46.5397 24.0024C46.5397 24.4484 46.3903 24.8248 46.0917 25.1314L42.1777 29.6989L42.8777 35.6479C42.9443 36.0683 42.8387 36.4656 42.5607 36.8399C42.2827 37.2139 41.9325 37.4383 41.5102 37.5129L35.4082 38.7629L32.2817 44.0769C32.0587 44.4473 31.7378 44.6994 31.3192 44.8334C30.9002 44.9678 30.4833 44.9436 30.0687 44.7609L24.6667 42.2349L19.2647 44.7609C18.85 44.9436 18.4332 44.9594 18.0142 44.8084C17.5955 44.6578 17.2747 44.3973 17.0517 44.0269ZM19.3612 40.9184L24.6652 38.6734L30.1187 40.9184L33.4452 35.9544L39.2472 34.4664L38.6592 28.5499L42.6612 23.9989L38.6592 19.3479L39.2472 13.4334L33.4452 12.0454L30.0232 7.08144L24.6687 9.32494L19.2147 7.08144L15.8917 12.0484L10.0982 13.4284L10.6742 19.3479L6.67217 23.9999L10.6742 28.5519L10.0982 34.5719L15.8897 35.9514L19.3612 40.9184Z" fill="white"/>
</svg>
